<svg id="Layer_1" data-name="Layer 1" xmlns="http://www.w3.org/2000/svg" viewBox="0 0 400 400"><defs><style>.cls-1{fill:#fefefe;}.cls-2{fill:#ed7225;}.cls-3{fill:#ed7327;}.cls-4{fill:#313131;}.cls-5{fill:#303030;}</style></defs><path class="cls-1" d="M526.43,717V317h400V717Zm92.94-142.08a5.87,5.87,0,0,0-.19,1.48c7.9,31.9,26.11,55.41,56.54,68.46,23.65,10.15,48.5,10.68,73.49,7,43.37-6.41,77.47-40.82,82.36-84.38,2.11-18.79,1.3-37.9,1.79-56.87a6.66,6.66,0,0,0-.61-1.73l-49.92,12.22c0,7.77.17,15.26,0,22.74-.33,11.72-2.23,23.15-6.94,34-5.59,12.93-15,21.33-28.63,24.91a89.51,89.51,0,0,1-35.64,1.8C687,601,675.09,589.68,669.07,565.38c-.38-1.54-.88-3-1.41-4.85Zm-3.51-54.35c1.67-.64,2.89-1.06,4.06-1.58,14.11-6.28,28.15-12.7,42.35-18.76,3.2-1.37,4-3.06,4-6.32-.11-36.33-.06-72.66-.08-109,0-1.45-.17-2.9-.26-4.38h-50Zm176.66-52.69-1.21-1c-1.21.48-2.45.92-3.65,1.43Q694,508.07,600.43,547.86c-13.69,5.86-27.09,12.45-40.33,19.28-4.83,2.5-8.79,6.69-13.15,10.1l.67,1.15a24.73,24.73,0,0,0,3.11-.59Q652.36,545.37,754,512.87c8.3-2.66,16.61-6.17,21.39-13.78C781.66,489.06,786.85,478.32,792.52,467.88Zm30.53,21.65c26.33-1.89,49.52-10,69.75-25.65a45.35,45.35,0,0,0,10.5-12.41c3.22-5.37,1.11-10.61-4.68-13.07A27.64,27.64,0,0,0,888.56,436c-29-.57-54.59,9.12-77.12,27.14a32.53,32.53,0,0,0-6.27,7.06c-5.74,8.36-3.31,15.16,6.42,17.67C815.57,488.91,819.76,489.08,823.05,489.53ZM783,380.34v65.33a5.21,5.21,0,0,0,1.55-.12c15.45-6.85,30.92-13.66,46.27-20.73,1.29-.59,2.42-3,2.47-4.57.24-8,.11-16,.11-23.95v-16Z" transform="translate(-526.43 -317)"/><path class="cls-2" d="M619.37,574.92l48.29-14.39c.53,1.8,1,3.31,1.41,4.85,6,24.3,17.95,35.64,42.51,39.17a89.51,89.51,0,0,0,35.64-1.8c13.61-3.58,23-12,28.63-24.91,4.71-10.87,6.61-22.3,6.94-34,.21-7.48,0-15,0-22.74l49.92-12.22a6.66,6.66,0,0,1,.61,1.73c-.49,19,.32,38.08-1.79,56.87-4.89,43.56-39,78-82.36,84.38-25,3.7-49.84,3.17-73.49-7-30.43-13.05-48.64-36.56-56.54-68.46A5.87,5.87,0,0,1,619.37,574.92Z" transform="translate(-526.43 -317)"/><path class="cls-3" d="M615.86,520.57v-140h50c.09,1.48.26,2.93.26,4.38,0,36.32,0,72.65.08,109,0,3.26-.76,4.95-4,6.32-14.2,6.06-28.24,12.48-42.35,18.76C618.75,519.51,617.53,519.93,615.86,520.57Z" transform="translate(-526.43 -317)"/><path class="cls-4" d="M792.52,467.88c-5.67,10.44-10.86,21.18-17.17,31.21-4.78,7.61-13.09,11.12-21.39,13.78q-101.6,32.55-203.23,64.93a24.73,24.73,0,0,1-3.11.59l-.67-1.15c4.36-3.41,8.32-7.6,13.15-10.1,13.24-6.83,26.64-13.42,40.33-19.28q93.51-40,187.23-79.51c1.2-.51,2.44-1,3.65-1.43Z" transform="translate(-526.43 -317)"/><path class="cls-5" d="M823.05,489.53c-3.29-.45-7.48-.62-11.46-1.65-9.73-2.51-12.16-9.31-6.42-17.67a32.53,32.53,0,0,1,6.27-7.06c22.53-18,48.08-27.71,77.12-27.14a27.64,27.64,0,0,1,10.06,2.39c5.79,2.46,7.9,7.7,4.68,13.07a45.35,45.35,0,0,1-10.5,12.41C872.57,479.57,849.38,487.64,823.05,489.53Z" transform="translate(-526.43 -317)"/><path class="cls-3" d="M783,380.34h50.4v16c0,8,.13,16-.11,23.95-.05,1.59-1.18,4-2.47,4.57-15.35,7.07-30.82,13.88-46.27,20.73a5.21,5.21,0,0,1-1.55.12Z" transform="translate(-526.43 -317)"/></svg>